# xmcd
#
# Track frame offsets:
#	150
#	16206
#	37662
#	53518
#	73274
#	91430
#	105686
#	124842
#	145398
#	160454
#	181410
#	193466
#	212622
#	229078
#	252334
#
# Disc length: 3605 seconds
#
# Revision: 1
# Processed by: cddbd v1.5.2PL0 Copyright (c) Steve Scherf et al.
# Submitted via: audiograbber 1.83.01
#
DISCID=d60e130f
DTITLE=Brings - Dat is geil
DYEAR=1900
DGENRE=
TTITLE0=Dat is geil
TTITLE1=Wunderbar
TTITLE2=Halleluja
TTITLE3=Do hin
TTITLE4=Nüssele
TTITLE5=Dat Beste
TTITLE6=Adios
TTITLE7=Nit allein
TTITLE8=De Zick
TTITLE9=Scheissejal
TTITLE10=Wir wollen niemals auseinander geh`n
TTITLE11=Lääve pur
TTITLE12=Kölle du bes bunt
TTITLE13=Rään
TTITLE14=Fang ding dräum 
EXTD=
EXTT0=
EXTT1=
EXTT2=
EXTT3=
EXTT4=
EXTT5=
EXTT6=
EXTT7=
EXTT8=
EXTT9=
EXTT10=
EXTT11=
EXTT12=
EXTT13=
EXTT14=
PLAYORDER=
